REM DIRINDEX 1\2,1\3,1\4,1\5
REM DIRNAME cjc005,folder01,folder02,folder03,folder04
TITLE ""
FILE "P1Q_t_0182-0191.mp3" MP3
  TRACK 01 AUDIO
    TITLE "3:cjc005_1447"
    INDEX 01 00:00:00
  TRACK 02 AUDIO
    TITLE "0:"
    INDEX 01 00:00:66
  TRACK 03 AUDIO
    TITLE "4:cjc005_1448"
    INDEX 01 00:01:17
  TRACK 04 AUDIO
    TITLE "0:"
    INDEX 01 00:02:32
  TRACK 05 AUDIO
    TITLE "5:cjc005_1449"
    INDEX 01 00:02:55
  TRACK 06 AUDIO
    TITLE "0:"
    INDEX 01 00:06:22
  TRACK 07 AUDIO
    TITLE "3:cjc005_1450"
    INDEX 01 00:07:02
  TRACK 08 AUDIO
    TITLE "0:"
    INDEX 01 00:08:17
  TRACK 09 AUDIO
    TITLE "4:cjc005_1451"
    INDEX 01 00:08:52
  TRACK 10 AUDIO
    TITLE "0:"
    INDEX 01 00:09:67
  TRACK 11 AUDIO
    TITLE "5:cjc005_1452"
    INDEX 01 00:10:16
  TRACK 12 AUDIO
    TITLE "0:"
    INDEX 01 00:14:31
  TRACK 13 AUDIO
    TITLE "3:cjc005_1453"
    INDEX 01 00:15:03
  TRACK 14 AUDIO
    TITLE "0:"
    INDEX 01 00:16:26
  TRACK 15 AUDIO
    TITLE "4:cjc005_1454"
    INDEX 01 00:16:49
  TRACK 16 AUDIO
    TITLE "0:"
    INDEX 01 00:17:43
  TRACK 17 AUDIO
    TITLE "5:cjc005_1455"
    INDEX 01 00:17:69
  TRACK 18 AUDIO
    TITLE "0:"
    INDEX 01 00:21:66
  TRACK 19 AUDIO
    TITLE "3:cjc005_1456"
    INDEX 01 00:22:38
  TRACK 20 AUDIO
    TITLE "0:"
    INDEX 01 00:23:44
  TRACK 21 AUDIO
    TITLE "4:cjc005_1457"
    INDEX 01 00:23:73
  TRACK 22 AUDIO
    TITLE "0:"
    INDEX 01 00:25:15
  TRACK 23 AUDIO
    TITLE "5:cjc005_1458"
    INDEX 01 00:25:37
  TRACK 24 AUDIO
    TITLE "0:"
    INDEX 01 00:29:07
  TRACK 25 AUDIO
    TITLE "3:cjc005_1459"
    INDEX 01 00:29:56
  TRACK 26 AUDIO
    TITLE "0:"
    INDEX 01 00:31:02
  TRACK 27 AUDIO
    TITLE "4:cjc005_1460"
    INDEX 01 00:31:22
  TRACK 28 AUDIO
    TITLE "0:"
    INDEX 01 00:32:25
  TRACK 29 AUDIO
    TITLE "5:cjc005_1461"
    INDEX 01 00:32:50
  TRACK 30 AUDIO
    TITLE "0:"
    INDEX 01 00:35:63
  TRACK 31 AUDIO
    TITLE "3:cjc005_1462"
    INDEX 01 00:36:40
  TRACK 32 AUDIO
    TITLE "0:"
    INDEX 01 00:37:46
  TRACK 33 AUDIO
    TITLE "4:cjc005_1463"
    INDEX 01 00:38:00
  TRACK 34 AUDIO
    TITLE "0:"
    INDEX 01 00:39:13
  TRACK 35 AUDIO
    TITLE "5:cjc005_1464"
    INDEX 01 00:39:31
  TRACK 36 AUDIO
    TITLE "0:"
    INDEX 01 00:43:01
  TRACK 37 AUDIO
    TITLE "3:cjc005_1465"
    INDEX 01 00:43:54
  TRACK 38 AUDIO
    TITLE "0:"
    INDEX 01 00:44:73
  TRACK 39 AUDIO
    TITLE "4:cjc005_1466"
    INDEX 01 00:45:18
  TRACK 40 AUDIO
    TITLE "0:"
    INDEX 01 00:46:33
  TRACK 41 AUDIO
    TITLE "5:cjc005_1467"
    INDEX 01 00:46:62
  TRACK 42 AUDIO
    TITLE "0:"
    INDEX 01 00:51:09
  TRACK 43 AUDIO
    TITLE "3:cjc005_1468"
    INDEX 01 00:51:62
  TRACK 44 AUDIO
    TITLE "0:"
    INDEX 01 00:53:13
  TRACK 45 AUDIO
    TITLE "4:cjc005_1469"
    INDEX 01 00:53:39
  TRACK 46 AUDIO
    TITLE "0:"
    INDEX 01 00:54:56
  TRACK 47 AUDIO
    TITLE "5:cjc005_1470"
    INDEX 01 00:55:10
  TRACK 48 AUDIO
    TITLE "0:"
    INDEX 01 00:58:66
  TRACK 49 AUDIO
    TITLE "3:cjc005_1471"
    INDEX 01 00:59:45
  TRACK 50 AUDIO
    TITLE "0:"
    INDEX 01 01:01:17
  TRACK 51 AUDIO
    TITLE "4:cjc005_1472"
    INDEX 01 01:01:44
  TRACK 52 AUDIO
    TITLE "0:"
    INDEX 01 01:03:10
  TRACK 53 AUDIO
    TITLE "5:cjc005_1473"
    INDEX 01 01:03:39
  TRACK 54 AUDIO
    TITLE "0:"
    INDEX 01 01:08:23
  TRACK 55 AUDIO
    TITLE "3:cjc005_1474"
    INDEX 01 01:09:03
  TRACK 56 AUDIO
    TITLE "0:"
    INDEX 01 01:10:08
  TRACK 57 AUDIO
    TITLE "4:cjc005_1475"
    INDEX 01 01:10:31
  TRACK 58 AUDIO
    TITLE "0:"
    INDEX 01 01:11:45
  TRACK 59 AUDIO
    TITLE "5:cjc005_1476"
    INDEX 01 01:11:66
  TRACK 60 AUDIO
    TITLE "0:"
    INDEX 01 01:15:44
